HIERARCHY
ROOT Hips
{
	OFFSET -3.958830 18.904000 13.208200
	CHANNELS 6 Xposition Yposition Zposition Zrotation Yrotation Xrotation 
	JOINT LHipJoint
	{
		OFFSET 0.000000 0.000000 0.000000
		CHANNELS 3 Zrotation Yrotation Xrotation
		JOINT LeftUpLeg
		{
			OFFSET 1.800000 -1.400000 0.085000
			CHANNELS 3 Zrotation Yrotation Xrotation
			JOINT LeftLeg
			{
				OFFSET 2.215000 -6.000000 0.000000
				CHANNELS 3 Zrotation Yrotation Xrotation
				JOINT LeftFoot
				{
					OFFSET 2.500000 -6.900000 0.000000
					CHANNELS 3 Zrotation Yrotation Xrotation
					JOINT LeftToeBase
					{
						OFFSET 0.200000 -0.500000 1.950000
						CHANNELS 3 Zrotation Yrotation Xrotation
						End Site
						{
							OFFSET 0.000000 0.000000 0.000000
						}
					}
				}
			}
		}
	}
	JOINT RHipJoint
	{
		OFFSET 0.000000 0.000000 0.000000
		CHANNELS 3 Zrotation Yrotation Xrotation
		JOINT RightUpLeg
		{
			OFFSET -1.800000 -1.400000 0.085000
			CHANNELS 3 Zrotation Yrotation Xrotation
			JOINT RightLeg
			{
				OFFSET -2.215000 -6.000000 0.000000
				CHANNELS 3 Zrotation Yrotation Xrotation
				JOINT RightFoot
				{
					OFFSET -2.500000 -6.900000 0.000000
					CHANNELS 3 Zrotation Yrotation Xrotation
					JOINT RightToeBase
					{
						OFFSET -0.200000 -0.500000 1.950000
						CHANNELS 3 Zrotation Yrotation Xrotation
						End Site
						{
							OFFSET 0.000000 0.000000 0.000000
						}
					}
				}
			}
		}
	}
	JOINT LowerBack
	{
		OFFSET 0.000000 0.000000 0.000000
		CHANNELS 3 Zrotation Yrotation Xrotation
		JOINT Spine
		{
			OFFSET -0.087000 1.940000 -0.288900
			CHANNELS 3 Zrotation Yrotation Xrotation
			JOINT Spine1
			{
				OFFSET 0.000000 1.950000 0.060000
				CHANNELS 3 Zrotation Yrotation Xrotation
				JOINT Neck
				{
					OFFSET 0.000000 0.000000 0.000000
					CHANNELS 3 Zrotation Yrotation Xrotation
					JOINT Neck1
					{
						OFFSET 0.000000 1.600000 0.340000
						CHANNELS 3 Zrotation Yrotation Xrotation
						JOINT Head
						{
							OFFSET 0.000000 1.667000 -0.240000
							CHANNELS 3 Zrotation Yrotation Xrotation
							End Site
							{
								OFFSET 0.000000 0.000000 0.000000
							}
						}
					}
				}
				JOINT LeftShoulder
				{
					OFFSET 0.000000 0.000000 0.000000
					CHANNELS 3 Zrotation Yrotation Xrotation
					JOINT LeftArm
					{
						OFFSET 2.700000 1.550000 -0.730000
						CHANNELS 3 Zrotation Yrotation Xrotation
						JOINT LeftForeArm
						{
							OFFSET 5.450000 0.000000 0.000000
							CHANNELS 3 Zrotation Yrotation Xrotation
							JOINT LeftHand
							{
								OFFSET 3.450000 0.000000 0.000000
								CHANNELS 3 Zrotation Yrotation Xrotation
								JOINT LeftHandIndex1
								{
									OFFSET 0.750000 0.000000 0.000000
									CHANNELS 3 Zrotation Yrotation Xrotation
									End Site
									{
										OFFSET 0.000000 0.000000 0.000000
									}
								}
							}
						}
					}
				}
				JOINT RightShoulder
				{
					OFFSET 0.000000 0.000000 0.000000
					CHANNELS 3 Zrotation Yrotation Xrotation
					JOINT RightArm
					{
						OFFSET -2.700000 1.550000 -0.730000
						CHANNELS 3 Zrotation Yrotation Xrotation
						JOINT RightForeArm
						{
							OFFSET -5.450000 0.000000 0.000000
							CHANNELS 3 Zrotation Yrotation Xrotation
							JOINT RightHand
							{
								OFFSET -3.450000 0.000000 0.000000
								CHANNELS 3 Zrotation Yrotation Xrotation
								JOINT RightHandIndex1
								{
									OFFSET -0.750000 0.000000 0.000000
									CHANNELS 3 Zrotation Yrotation Xrotation
									End Site
									{
										OFFSET 0.000000 0.000000 0.000000
									}
								}
							}
						}
					}
				}
			}
		}
	}
}
MOTION
Frames: 8
Frame Time: 0.016667
-8.469680 19.820080 1.347560 -30.135050 0.284321 0.762748 -15.205562 13.861978 2.911861 15.587465 -0.881961 -18.830871 -5.695554 7.094289 18.666125 -0.134333 4.570642 2.819629 0.087920 0.088760 -0.078820 18.027965 -10.906175 2.608543 -18.097691 2.503425 -19.847133 10.679970 -12.987998 40.386416 -0.674861 -7.013093 1.733565 0.079150 0.214980 0.132400 -3.181691 -2.692646 -7.814479 8.001702 -2.418551 17.871724 -0.261622 -0.221535 11.488742 3.794184 -3.353390 -11.628452 -9.414241 4.245720 43.205500 2.744170 -1.234860 -4.507790 -3.497470 -8.483927 7.337058 -17.050246 1.943031 -1.213902 -44.783333 -56.017261 22.199989 -3.555103 3.575925 0.193900 0.050230 0.059560 0.126400 -3.307365 12.504750 3.848032 -17.554124 2.945428 -6.062654 -84.263015 49.237453 -37.022116 1.997814 -1.026114 -0.070470 0.191170 0.080880 0.063280 
-8.592520 19.719140 1.377920 -29.541797 2.446774 1.996771 -15.216975 13.811015 3.097690 14.594832 -1.230567 -19.247471 -6.704037 6.630339 15.804359 -0.165096 4.289182 2.952092 0.050730 0.055060 -0.129120 17.979410 -11.217581 2.268156 -17.897859 1.320604 -18.248600 7.319307 -9.113626 31.188850 -0.283470 -5.247135 2.356769 0.075270 0.274850 0.122840 -3.138400 -2.346475 -7.633929 6.620015 -1.231281 15.567554 0.045152 0.790692 11.349015 3.565805 -2.479646 -11.472013 -7.475638 3.051808 41.726397 4.012650 -2.119830 -3.667880 -3.108614 -9.486077 7.313635 -16.757092 -1.262419 -0.184022 -45.651658 -59.784971 24.901052 -3.604105 3.585468 0.155060 0.085740 0.010420 0.133830 -3.221803 13.031260 3.890128 -17.241465 3.694725 -6.186939 -76.284445 48.313834 -30.845748 2.012865 -1.115161 -0.090640 0.206970 0.103200 0.081510 
-8.717900 19.544390 1.390410 -28.720223 6.190900 3.906315 -15.213435 13.664768 3.239140 12.775656 -1.896051 -20.555376 -6.545888 5.597732 12.217281 -0.218107 3.788339 3.182078 -0.005820 0.003670 -0.217740 17.986298 -11.387295 2.026909 -19.038800 0.367826 -17.195265 3.455845 -6.547688 24.238832 -0.062959 -4.191877 2.764473 0.062580 0.368000 0.121190 -3.233286 -2.114522 -7.475695 6.142003 -0.885573 12.540494 -0.141522 1.031561 11.228008 2.901753 -2.626510 -11.355829 -7.920015 1.859038 40.096250 4.600680 -3.978120 -2.118670 -1.028958 -10.196777 7.040142 -16.008477 -6.580539 1.685440 -46.929469 -63.564649 28.237835 -3.669953 3.600286 0.087130 0.142670 -0.060970 0.153150 -4.033595 13.583389 4.117952 -16.759258 4.499675 -6.142154 -67.057943 45.611604 -23.959883 2.058807 -1.273864 -0.105570 0.228870 0.139960 0.123350 
-8.813430 19.359630 1.409500 -28.623394 8.843922 5.082537 -15.184610 13.393222 3.314642 11.411089 -2.254169 -20.462323 -6.944352 4.767184 8.163556 -0.234768 3.447597 3.331510 -0.021780 -0.007320 -0.239250 18.038326 -11.413069 1.974086 -19.745091 0.046188 -15.175686 1.405233 -5.100093 18.013828 -0.009156 -3.666513 2.981353 0.055940 0.385740 0.118930 -3.402957 -1.755963 -7.419330 6.910418 -0.283223 9.868564 -1.374841 1.781375 11.511042 3.012839 -1.936393 -11.531184 -6.791252 1.326454 40.542135 5.444220 -4.468020 -1.422990 1.129083 -11.195879 6.937535 -17.098491 -11.451275 3.004113 -45.025333 -65.658368 28.467492 -3.664510 3.596148 0.069780 0.152660 -0.073870 0.153580 -6.491029 13.772060 4.459320 -16.164911 4.990003 -5.600790 -53.632508 44.146730 -16.589142 2.107072 -1.390805 -0.104480 0.227780 0.147890 0.134400 
-8.929150 19.155560 1.454580 -28.374927 11.079434 6.379207 -15.207651 13.092713 3.340702 10.414924 -2.589439 -20.772768 -7.622216 4.351228 5.707999 -0.229367 3.345928 3.395605 -0.057240 -0.049190 -0.249300 18.063457 -11.203047 2.095432 -20.834207 0.200320 -13.161105 1.170479 -4.338845 11.942858 0.002931 -3.568834 3.043283 0.042210 0.415800 0.138300 -3.435190 -1.608791 -7.412882 6.778810 0.442034 7.601270 -2.223267 2.561372 11.897527 3.348529 -1.842100 -11.795923 -6.387821 1.239315 38.934703 3.547370 -3.383370 0.226750 2.882436 -11.301226 6.828842 -18.478028 -14.331792 4.072282 -45.354145 -68.182681 30.028680 -3.719684 3.628654 0.017230 0.207930 -0.112750 0.142030 -8.903073 13.821052 5.006762 -14.772810 6.019968 -5.006028 -43.165311 39.119073 -10.816951 2.174358 -1.555009 -0.108150 0.201600 0.162750 0.131480 
-9.049350 18.931620 1.506450 -27.871124 12.033559 7.051164 -15.206808 12.825118 3.281559 8.996962 -2.759124 -20.449206 -8.767436 4.332438 5.013122 -0.176845 3.293150 3.415720 -0.059860 -0.047200 -0.254050 18.103140 -10.925596 2.417005 -21.181907 0.588797 -11.134630 2.363259 -3.898541 6.066951 -0.075369 -3.659929 3.042302 0.013820 0.385820 0.145920 -3.496862 -1.475273 -7.513373 6.692973 1.609816 6.422108 -4.380721 4.167396 12.363038 3.699615 -2.030189 -12.800903 -7.168107 0.908016 39.764769 3.752700 -3.883860 0.347270 4.556984 -11.851627 6.773786 -20.070670 -16.503349 4.194891 -41.057207 -69.720341 27.695699 -3.656263 3.621732 0.030550 0.182190 -0.080210 0.144080 -11.256255 14.856625 6.459008 -12.786228 6.575060 -4.415586 -33.754410 31.001614 -5.944987 2.301546 -1.628541 -0.078910 0.178670 0.151900 0.141950 
-9.143270 18.712890 1.559190 -27.419748 13.852741 7.377623 -15.228265 12.789051 3.188589 5.946939 -3.081284 -20.593840 -6.421008 3.670640 4.505278 -0.186453 2.811286 3.587890 -0.085100 -0.097720 -0.220750 18.100464 -10.725086 2.755105 -20.134882 0.913378 -7.781864 2.997813 -3.558886 1.403266 -0.192404 -3.869326 3.017889 -0.059540 0.301740 0.134310 -3.496370 -1.624272 -7.665635 6.906313 2.061202 6.306604 -6.988096 5.239432 12.375780 4.733616 -2.692974 -14.559699 -9.354506 0.963969 42.044730 2.535650 -3.900100 1.356150 3.514584 -12.895794 7.270874 -22.515478 -15.900302 3.233360 -37.449119 -70.870169 25.196674 -3.573100 3.564949 0.083630 0.120630 -0.025420 0.117090 -12.117942 17.001180 8.355352 -12.335591 5.573948 -3.849300 -26.028732 24.149607 -2.850449 2.447342 -1.570295 -0.058890 0.137220 0.135450 0.119630 
-9.197750 18.479830 1.604570 -27.321840 16.517968 8.029338 -15.220638 12.649345 3.172550 4.799534 -3.346155 -20.932065 -5.647679 3.337768 3.793146 -0.173523 2.595014 3.655526 -0.093740 -0.118630 -0.215510 18.125545 -10.591300 2.966089 -20.813852 1.277008 -5.456613 2.842825 -3.398405 -1.233267 -0.288176 -4.144025 2.940780 -0.100970 0.249030 0.135120 -3.580523 -1.583263 -7.806578 7.867439 2.759997 5.996311 -8.870931 6.277427 11.829780 5.363251 -2.613094 -15.492693 -9.666674 -0.870263 42.121371 2.376030 -5.946160 1.153090 1.557813 -13.875965 6.912437 -24.898501 -17.643388 2.964705 -31.785647 -72.065531 21.422946 -3.511431 3.526883 0.102620 0.077950 0.002410 0.102610 -11.395153 18.361415 9.986404 -12.596666 3.867829 -2.918912 -19.344222 18.521753 -0.995016 2.556761 -1.439283 -0.029250 0.102730 0.128230 0.120870 
